<?xml version="1.0" encoding="UTF-8"?>
<svg id="Layer_2" data-name="Layer 2" xmlns="http://www.w3.org/2000/svg" width="202.478" height="58.483" viewBox="0 0 202.478 58.483">
  <g id="Layer_1-2" data-name="Layer 1">
    <g>
      <rect fill="#eee8d7" width="58.483" height="58.483" rx="9.88" ry="9.88"/>
      <g>
        <path fill="#a9c4a3" d="M18.199,18.355c1.971,4.666,8.707,3.944,11.482,3.152,3.887-1.109,12.651-6.924,8.688-13.237-4.037-6.431-22.63,4.264-20.17,10.085Z"/>
        <path fill="#58896e" d="M44.928,26.746c.768,5.743-5.138,8.582-16.253,8.582-7.525,0-13.264-3.116-14.576-6.135-3.459-7.963,29.791-10.208,30.829-2.446Z"/>
        <path fill="#244c3b" d="M7.894,40.555c-3.04,7.353,2.838,10.438,16.409,11.481,10.194.783,24.243-1.2,26.516-5.119,5.996-10.334-38.619-16.778-42.925-6.362Z"/>
      </g>
      <g>
        <path fill="#173525" d="M99.324,14.952l.979-.14s1.422,5.372,1.422,5.535-.09.319-.268.466c-.179.148-.369.221-.571.221-.358,0-.707-.381-1.049-1.142-.653-1.445-1.197-2.377-1.631-2.797-1.01-.901-2.494-1.721-4.451-1.721-2.735,0-4.568,1.185-5.5,2.816-.295.528-.443,1.173-.443,1.934s.182,1.476.548,2.144c.365.668.924,1.34,1.678,2.016.753.676,2.082,1.402,3.247,2.179,1.165.777,2.416,1.624,3.752,2.54,1.336.917,2.377,1.744,3.123,2.482.746.738,1.352,1.472,1.818,2.202.886,1.383,1.328,2.727,1.328,4.032s-.186,2.467-.559,3.484c-.373,1.018-1.348,2.277-2.187,3.038-1.818,1.694-4.506,2.171-8.064,2.171-1.803,0-3.791-.396-5.966-1.189-.498-.171-.932-.583-.932-.583,0,0-1.631-6.922-1.631-7.155,0-.559.21-.839.629-.839.559,0,.963.428,1.212,1.282.435,1.523.823,2.509,1.165,2.96,1.32,1.74,2.851,3.244,4.591,3.772.513.156,1.2.233,2.063.233s1.709-.128,2.54-.384c.831-.257,1.518-.602,2.063-1.037,1.025-.839,1.538-2.23,1.538-3.434s-.384-2.292-1.154-3.263c-.769-.971-1.694-1.818-2.773-2.54-1.08-.722-1.888-1.255-2.424-1.597-.536-.341-1.037-.668-1.503-.979-3.931-2.625-6.254-5.236-6.968-7.831-.186-.684-.28-1.468-.28-2.354s.217-1.794.653-2.727c.435-.932,1.056-1.748,1.864-2.447,1.787-1.522,4.094-2.284,6.922-2.284,1.289,0,2.322.132,3.1.396,1.087.358,1.795.536,2.121.536Z"/>
        <path fill="#173525" d="M118.417,26.652h-6.619v12.981c0,2.408.583,3.838,1.748,4.288.357.14.777.21,1.259.21s.92-.082,1.317-.245.75-.338,1.06-.524c.311-.186.575-.361.792-.524.217-.163.423-.245.618-.245s.369.109.524.326c.155.218.233.435.233.653,0,.544-.691,1.197-2.074,1.958-1.057.59-2.385.886-3.985.886s-2.851-.571-3.752-1.713c-.901-1.142-1.352-2.723-1.352-4.743v-13.307h-1.422c-1.119,0-1.678-.287-1.678-.862,0-.419.311-.707.932-.862.621-.155,1.157-.431,1.608-.827.45-.396.819-.847,1.107-1.352.287-.505.516-1.029.688-1.573.171-.544.326-1.041.466-1.491.341-1.025.73-1.538,1.165-1.538.497,0,.746.443.746,1.328v5.863l6.619-.004v1.32Z"/>
        <path fill="#173525" d="M142.543,42.709c.451,0,.676.618.676.618,0,0-4.405,3.088-4.638,3.088-.467,0-.855-.194-1.165-.583-.311-.388-.731-1.219-1.259-2.494-.885,1.01-1.961,1.775-3.228,2.296-1.266.52-2.521.781-3.764.781-2.346,0-4.164-.598-5.454-1.794-1.29-1.196-1.934-2.835-1.934-4.917s.975-3.772,2.925-5.069c1.95-1.297,4.44-1.946,7.469-1.946.901,0,2.09.156,3.565.466v-1.818c0-3.993-1.686-5.989-5.057-5.989-1.787,0-2.731.824-3.569,2.47-.731,1.476-1.414,1.969-2.144,2.214-.406.136-1.294.128-1.794-.218-.496-.343-.487-.893-.487-1.344s.233-.952.699-1.503c.466-.551,1.087-1.053,1.864-1.503,1.833-1.072,3.845-1.608,6.036-1.608,3.884,0,6.393,1.266,7.528,3.799.42.901.629,2.004.629,3.309v9.299c0,1.197.116,1.966.349,2.307.234.342.56.513.979.513s.761-.062,1.025-.186c.264-.124.513-.187.746-.187ZM135.738,34.214c-1.118-.637-3.18-.73-4.241-.586-1.098.149-3.08.797-4.114,1.651-1.033.855-1.55,2.37-1.55,3.807s.396,2.633,1.189,3.589c.792.956,1.81,1.433,3.053,1.433,2.657,0,4.568-.87,5.733-2.61-.046-.435-.07-.916-.07-1.445v-5.838Z"/>
        <path fill="#173525" d="M149.727,44.737c-.249.109-2.528,1.445-2.528,1.445,0,0-.013-5.655-.013-7.178l.07-18.901c0-1.46-.124-2.412-.373-2.855-.249-.443-.505-.742-.769-.897-.264-.155-.688-.28-1.27-.373s-.874-.334-.874-.722c0-.357,6.906-2.75,6.906-2.75,0,0-.007,6.603-.007,7.411v7.108c1.212-1.569,2.882-2.564,5.011-2.983.621-.124,1.219-.187,1.794-.187,2.905,0,5.228,1.08,6.968,3.24,1.616,2.035,2.424,4.646,2.424,7.831,0,3.418-1.08,6.207-3.24,8.367-2.082,2.082-4.514,3.123-7.294,3.123s-5.05-.559-6.805-1.678ZM150.869,41.218c.559,1.119,1.371,1.973,2.435,2.564,1.064.591,2.175.886,3.333.886s2.121-.194,2.89-.583c.769-.388,1.418-.94,1.946-1.655,1.119-1.507,1.678-3.55,1.678-6.129,0-3.045-.606-5.485-1.818-7.318-1.197-1.818-2.692-3.235-4.754-3.465-1.745-.195-3.59,1.01-4.568,1.744-.337.253-.816.669-1.142,1.243v12.714Z"/>
        <path fill="#173525" d="M171.034,46.181h-1.538s2.68-1.487,2.913-1.62c.233-.132.411-.415.536-.851.248-.792.373-2.548.373-5.267v-17.363c0-2.579-.536-3.946-1.608-4.102-.777-.124-1.165-.381-1.165-.769,0-.357,6.386-2.75,6.386-2.75v24.983c0,2.719.093,4.386.279,4.999.187.614.396.987.629,1.119.233.132,2.913,1.62,2.913,1.62h-1.538c-.591,0-7.59,0-8.18,0Z"/>
        <path fill="#173525" d="M185.896,43.21c-.909-1.002-1.608-2.187-2.097-3.554-.49-1.367-.734-2.886-.734-4.556s.287-3.204.862-4.603c.575-1.398,1.367-2.595,2.377-3.589,2.097-2.066,4.684-3.1,7.761-3.1,2.548,0,4.607.839,6.176,2.517,1.491,1.616,2.237,3.612,2.237,5.989,0,.777-.163,2.109-.163,2.109,0,0-1.671.101-2.214.14-.544.039-1.204.081-1.981.128-.777.047-1.643.093-2.599.14-.956.047-1.931.101-2.925.163-2.284.14-4.117.28-5.5.419.341,4.18,1.942,6.891,4.801,8.134.932.404,1.927.606,2.983.606,2.237,0,4.009-.653,5.314-1.958.559-.559.986-.839,1.282-.839.56,0,.839.334.839,1.002,0,.342-.233.754-.699,1.235-.466.482-1.134.979-2.004,1.492-1.538.886-3.333,1.328-5.384,1.328s-3.725-.284-5.022-.851c-1.298-.567-2.4-1.352-3.309-2.354ZM187.05,33.69c7.287-.373,11.664-.858,11.664-.858,0,0,.059-.944.059-1.706s-.148-1.503-.443-2.226c-.295-.722-.691-1.34-1.189-1.853-1.025-1.041-2.299-1.561-3.822-1.561-1.725,0-3.178.722-4.358,2.167-1.243,1.507-1.88,3.519-1.911,6.036Z"/>
      </g>
    </g>
  </g>
</svg>